PathFileType  4	(X/Y/Z) C:\Users\antoi\Documents\MyRepositories\mobilecap\ResultsAnalysis
DataRate	CameraRate	NumFrames	NumMarkers	Units	OrigDataRate	OrigDataStartFrame	OrigNumFrames
100.0	100.0	4	51	mm	100.0	1529	1747
Frame#	Time	r_knee			r_shank_antsup			r_ankle			r_calc			r_5meta			r_toe			L_knee			L_shank_antsup			L_ankle			L_calc			L_5meta			L_toe			r_sh2			r_sh3			r_sh4			L_sh2			L_sh3			r_thigh1			r_thigh2			r_thigh3			r_thigh4			r_thigh5			L_thigh1			L_thigh2			L_thigh3			L_thigh4			r.ASIS			r.PSIS			L.ASIS			L.PSIS			C7			R_Shoulder			L_Shoulder			R_Sternum			L_Sternum			R_humerus			R_elbow_med			R_elbow_lat			R_forearm			R_wrist_radius			R_wrist_ulna			L_humerus			L_elbow_med			L_elbow_lat			L_forearm			L_wrist_radius			L_wrist_ulna			R_HJC			L_HJC			R_HJC_reg			L_HJC_reg			
		X1	Y1	Z1	X2	Y2	Z2	X3	Y3	Z3	X4	Y4	Z4	X5	Y5	Z5	X6	Y6	Z6	X7	Y7	Z7	X8	Y8	Z8	X9	Y9	Z9	X10	Y10	Z10	X11	Y11	Z11	X12	Y12	Z12	X13	Y13	Z13	X14	Y14	Z14	X15	Y15	Z15	X16	Y16	Z16	X17	Y17	Z17	X18	Y18	Z18	X19	Y19	Z19	X20	Y20	Z20	X21	Y21	Z21	X22	Y22	Z22	X23	Y23	Z23	X24	Y24	Z24	X25	Y25	Z25	X26	Y26	Z26	X27	Y27	Z27	X28	Y28	Z28	X29	Y29	Z29	X30	Y30	Z30	X31	Y31	Z31	X32	Y32	Z32	X33	Y33	Z33	X34	Y34	Z34	X35	Y35	Z35	X36	Y36	Z36	X37	Y37	Z37	X38	Y38	Z38	X39	Y39	Z39	X40	Y40	Z40	X41	Y41	Z41	X42	Y42	Z42	X43	Y43	Z43	X44	Y44	Z44	X45	Y45	Z45	X46	Y46	Z46	X47	Y47	Z47	X48	Y48	Z48	X49	Y49	Z49	X50	Y50	Z50	X51	Y51	Z51	

1529	15.28000000	-200.31154	556.99976	-427.94624	-173.79725	435.47967	-420.24834	-276.48217	102.29240	-399.47853	-337.97387	67.21088	-448.24195	-152.73687	37.46441	-331.61895	-105.92422	58.60096	-399.86149	-220.92199	550.70355	-855.03589	-173.75577	449.84577	-859.22793	-233.21258	96.21840	-893.47270	-292.31828	66.51542	-849.43257	-87.44044	32.32148	-921.45860	-56.91129	59.99801	-851.83692	-176.17668	319.93809	-426.06006	-242.47499	433.69080	-382.48696	-238.77961	317.93729	-367.89221	-259.57495	451.80011	-887.55332	-237.92420	333.85191	-917.14781	-85.79328	787.64164	-456.11702	-92.23490	674.16942	-456.74888	-130.81672	653.18547	-405.95006	-181.44807	789.17684	-394.65366	-183.54850	670.64870	-402.18400	-135.19297	805.79484	-853.89073	-130.67948	669.22804	-860.11359	-246.86529	801.22900	-869.72114	-241.13965	662.68292	-866.45598	-109.70920	1054.96325	-493.72398	-314.89908	1085.81153	-577.58882	-116.09050	1048.67106	-764.30845	-320.48251	1086.84135	-675.08821	-249.29945	1586.23339	-631.33601	-179.46718	1514.11990	-442.37815	-167.36967	1533.06766	-805.24738	-112.80159	1506.17749	-606.16739	-112.64189	1502.65094	-648.97812	-177.17342	1347.97392	-364.01421	-267.63288	1131.41912	-389.40348	-227.86436	1160.70551	-309.36808	-102.54949	1221.23790	-402.21270	-15.18721	1250.47829	-477.69487	7.86486	1216.12552	-465.78694	-159.27908	1363.22744	-893.60735	-254.63904	1145.36437	-890.45703	-192.43396	1174.26051	-948.60215	-110.53497	1239.74408	-820.72862	-22.96127	1260.80273	-742.30361	3.49891	1227.31869	-764.04126	-192.27111	974.03384	-528.96860	-194.60065	959.34928	-741.84195	-179.98926	968.50576	-529.24800	-190.20449	970.38899	-707.62935	
1530	15.29000000	-200.63892	556.99208	-428.02066	-174.05543	435.42162	-420.30844	-276.50003	102.22972	-399.48307	-337.96516	67.17368	-448.14241	-152.76778	37.40174	-331.61561	-105.95291	58.57098	-399.86984	-221.33076	550.53630	-855.19565	-174.01357	449.80489	-859.36652	-233.22021	96.21456	-893.48205	-292.22119	66.53783	-849.36804	-87.43180	32.35900	-921.40915	-56.91837	60.03639	-851.83854	-176.31584	319.92794	-426.09050	-242.72048	433.67477	-382.61276	-238.97002	317.95749	-368.01573	-259.82007	451.66650	-887.80522	-238.06056	333.86053	-917.30928	-86.72562	787.54068	-456.48887	-92.94430	674.13922	-456.76826	-131.57007	653.30430	-405.71615	-182.33708	789.15059	-394.75083	-184.40176	670.49828	-402.38457	-136.06743	805.79706	-853.91771	-131.35080	669.13586	-860.21378	-247.73576	800.94181	-870.02453	-241.81207	662.43598	-866.78118	-110.78254	1054.70043	-494.10929	-316.00124	1086.15647	-577.63816	-117.17308	1048.46679	-764.42954	-321.58445	1087.04707	-675.44627	-248.08344	1586.48501	-631.67419	-178.77301	1514.03763	-442.68366	-166.21447	1532.95678	-805.23087	-112.05455	1505.82027	-606.31980	-111.81073	1502.31358	-649.07613	-177.18750	1347.96634	-364.04304	-268.90744	1131.99801	-388.67167	-228.83228	1161.09023	-309.17294	-103.15654	1220.93408	-401.79973	-15.67916	1249.54367	-477.61582	7.25364	1215.18787	-465.57183	-158.45825	1363.11463	-893.56760	-254.96059	1145.64421	-890.87698	-192.30311	1174.40721	-949.11109	-110.65788	1239.31838	-820.67249	-23.21905	1260.00614	-742.12015	3.28707	1226.45662	-763.99111	-193.57694	974.00306	-529.19653	-195.96566	959.31730	-742.06914	-181.39285	968.75711	-529.46090	-191.56558	970.38104	-707.67173	
1531	15.30000000	-201.01849	557.02902	-428.01998	-174.28732	435.35906	-420.35397	-276.52331	102.21719	-399.48702	-337.99154	67.12372	-448.07086	-152.80307	37.35767	-331.63887	-105.98591	58.56557	-399.87261	-221.63525	550.40028	-855.28392	-174.19126	449.79704	-859.53408	-233.23448	96.21086	-893.48821	-292.12987	66.51773	-849.21758	-87.43051	32.39409	-921.37680	-56.92017	60.06997	-851.81622	-176.45302	319.95957	-426.11421	-242.86616	433.45860	-382.66206	-239.20538	317.92761	-368.16503	-259.94424	451.55500	-888.05418	-238.09450	333.80787	-917.46964	-87.70044	787.49490	-456.83808	-93.76845	674.00762	-457.25254	-132.34503	653.46398	-405.37075	-183.35904	789.19351	-394.79530	-185.32219	670.25302	-402.66075	-137.05708	805.76729	-853.84174	-132.04889	669.06928	-860.35646	-248.72940	800.62279	-870.15663	-242.45203	662.19798	-867.00756	-112.01390	1054.28958	-494.76010	-317.19830	1086.52812	-577.82959	-118.42374	1048.27860	-764.69150	-322.67606	1087.18646	-675.96640	-246.78371	1586.73750	-632.00169	-178.02036	1513.94939	-443.00024	-164.98617	1532.80974	-805.16326	-111.24445	1505.42574	-606.48150	-110.92931	1501.90815	-649.24960	-177.10519	1347.98580	-364.05366	-269.85013	1132.31526	-388.08984	-229.75253	1161.45378	-309.11310	-103.74142	1220.65668	-401.44981	-16.18045	1248.51808	-477.84234	6.62651	1214.17225	-465.39873	-157.66202	1363.10324	-893.74864	-255.18294	1145.98378	-891.25833	-192.11799	1174.53002	-949.63444	-110.69086	1238.85537	-820.65570	-23.48590	1259.25557	-742.03079	3.07579	1225.57805	-763.74300	-195.01092	973.88048	-529.64431	-197.47408	959.28571	-742.52226	-183.13521	969.16109	-529.90976	-193.06891	970.35517	-707.87768	
1532	15.31000000	-201.48837	557.01176	-428.03035	-174.44904	435.35738	-420.38439	-276.53343	102.23500	-399.48288	-338.01734	67.11181	-448.08659	-152.80254	37.39050	-331.67511	-105.98567	58.62112	-399.89435	-221.85075	550.31519	-855.55114	-174.26124	449.80579	-859.76154	-233.25031	96.20350	-893.48662	-292.20497	66.44783	-849.15568	-87.43736	32.42041	-921.38788	-56.92920	60.09320	-851.78602	-176.55233	319.97866	-426.20821	-242.94945	433.23074	-382.68115	-239.39666	317.86099	-368.21943	-259.96810	451.50133	-888.26905	-238.06175	333.70987	-917.63668	-88.80151	787.55395	-457.01716	-94.67642	674.13363	-457.30734	-133.18298	653.47454	-405.28452	-184.54995	789.06925	-395.00135	-186.18059	670.08050	-402.81670	-138.09597	805.64091	-853.80168	-132.73892	668.98394	-860.39772	-249.77793	800.38069	-870.26017	-243.11076	661.99196	-867.27437	-113.42755	1053.97617	-495.32365	-318.51014	1086.86331	-578.16001	-119.83878	1047.95588	-764.73182	-323.86585	1087.54289	-676.26105	-245.40567	1587.02413	-632.30481	-177.15796	1513.78927	-443.24270	-163.68832	1532.71552	-805.40036	-110.32573	1504.96693	-606.58914	-109.99531	1501.45056	-649.48361	-176.96613	1348.04600	-364.10515	-270.70082	1132.58364	-387.61905	-230.61916	1161.86021	-308.88488	-104.29440	1220.31538	-401.15830	-16.69968	1247.47492	-478.06130	6.07397	1213.12511	-465.11718	-156.80470	1363.08843	-894.12912	-255.24588	1146.40529	-891.68527	-191.88751	1174.63234	-950.16290	-110.61521	1238.43940	-820.73398	-23.66723	1258.39377	-741.85450	2.91097	1224.67566	-763.49089	-196.66528	973.83277	-529.93808	-199.15634	959.22083	-742.81454	-184.89468	969.20127	-530.46943	-194.59238	970.43111	-708.10470	
